<svg width="1920" height="389" viewBox="0 0 1920 389" fill="none" xmlns="http://www.w3.org/2000/svg">
<path d="M-60.185 218.651C-41.395 233.582 -22.605 248.514 -3.81499 263.445C7.65908 223.709 27.6185 185.907 52.39 153.96C62.4862 140.965 73.5829 128.757 85.5991 117.531C138.02 70.2551 194.703 19.5623 265.13 6.69372C265.665 6.62351 266.199 6.55762 266.732 6.49607C444.981 -13.9846 480.424 206.654 652.209 260.144C658.028 262.025 663.991 263.701 670.095 265.159C803.598 299.418 923.092 228.419 1036.22 188.02C1113.96 160.699 1197.63 142.861 1279.35 158.095C1288 159.611 1296.33 161.46 1304.96 163.758C1429.21 194.339 1462.9 334.149 1597.26 383.011C1627.84 391.936 1660.96 388.957 1689.38 378.923C1746.18 358.858 1781.9 314.419 1816 274.318C1854.91 227.708 1896.11 180.523 1931.01 127.852C1951.85 96.2588 1970.22 62.7254 1982.29 26.3343C1983.41 22.9265 1974.48 14.7513 1954.42 5.07983C1953.14 4.69914 1951.86 4.31844 1950.58 3.93775C1928.58 0.689684 1916.82 1.33733 1915.79 4.45182C1904.76 37.7428 1895.92 72.7108 1886.45 107.455C1870.61 165.015 1851.94 224.953 1812.93 271.746C1779.23 312.203 1729.46 341.001 1681.62 345.173C1655.96 347.775 1632.4 345.258 1609.87 338.774C1510.34 308.219 1429.01 183.133 1306.04 159.338C1297.23 157.364 1288.78 155.687 1280.04 154.155C1197.44 138.744 1112.83 156.845 1034.92 184.234C919.312 226.213 792.994 251.235 682.301 216.937C677.29 215.581 672.393 214.121 667.589 212.568C530.992 178.736 440.405 -22.7586 266.268 2.52128C265.716 2.58622 265.164 2.65504 264.61 2.72773C192.04 16.1109 135.628 67.158 82.8685 114.608C70.806 125.878 58.3698 136.747 45.4818 147.185C13.6244 173.116 -21.0246 195.974 -60.185 218.651Z" fill="#DBAA50"/>
</svg>
